<svg xmlns="http://www.w3.org/2000/svg" xmlns:xlink="http://www.w3.org/1999/xlink" width="24" height="24" viewBox="0 0 24 24">
    <defs>
        <path id="prefix__a" d="M0 0H24V24H0z"/>
    </defs>
    <g fill="none" fill-rule="evenodd">
        <mask id="prefix__b" fill="#fff">
            <use xlink:href="#prefix__a"/>
        </mask>
        <g fill="#6B6F7C" mask="url(#prefix__b)">
            <path d="M2.592 23.605c-1.213 0-2.197-.984-2.197-2.197V10.553c0-1.214.984-2.198 2.197-2.198h4.316V2.592c0-1.16.9-2.111 2.04-2.192l.157-.005h5.79c1.213 0 2.197.984 2.197 2.197v10.105h4.316c1.16 0 2.111.9 2.192 2.04l.005.158v6.513c0 1.213-.984 2.197-2.197 2.197zm18.816-9.408h-4.316v7.908h4.316c.385 0 .697-.312.697-.697v-6.513c0-.385-.312-.698-.697-.698zM6.907 9.855H2.592c-.353 0-.645.263-.69.603l-.007.095v10.855c0 .385.312.697.697.697h4.315V9.855zm1.5 12.25h7.185V2.592c0-.353-.263-.645-.603-.69l-.094-.007h-5.79c-.384 0-.697.312-.697.697v19.513zm2.87-17.368c.765 0 1.395.584 1.466 1.332l.007.142V9.8l.697.002c.415 0 .75.335.75.75 0 .38-.282.693-.648.743l-.102.007h-2.894c-.415 0-.75-.336-.75-.75 0-.38.282-.694.648-.744l.102-.006.697-.001V6.236h-.697c-.38 0-.694-.281-.744-.647l-.006-.102c0-.38.282-.694.648-.743l.102-.007h.723z"/>
        </g>
    </g>
</svg>
