<svg xmlns="http://www.w3.org/2000/svg" width="24" height="24" viewBox="0 0 24 24">
    <path fill="#6B6F7C" fill-rule="nonzero" d="M21.167.25c1.42 0 2.583 1.117 2.583 2.51v18.48c0 1.393-1.164 2.51-2.583 2.51H2.833c-1.42 0-2.583-1.117-2.583-2.51V2.76C.25 1.367 1.414.25 2.833.25zm0 1.5H2.833c-.604 0-1.083.46-1.083 1.01v18.48c0 .55.479 1.01 1.083 1.01h18.334c.604 0 1.083-.46 1.083-1.01V2.76c0-.55-.479-1.01-1.083-1.01zM17.19 15.875a.75.75 0 0 1 .102 1.493l-.102.007H7a.75.75 0 0 1-.102-1.493L7 15.875h10.191zm0-4.53a.75.75 0 0 1 .102 1.494l-.102.007H7a.75.75 0 0 1-.102-1.494L7 11.346h10.191zm0-4.529a.75.75 0 0 1 .102 1.493l-.102.007H7a.75.75 0 0 1-.102-1.493L7 6.816h10.191z"/>
</svg>
