<svg xmlns="http://www.w3.org/2000/svg" xmlns:xlink="http://www.w3.org/1999/xlink" width="24" height="24" viewBox="0 0 24 24">
    <defs>
        <path id="prefix__a" d="M0 0H24V24H0z"/>
    </defs>
    <g fill="none" fill-rule="evenodd">
        <mask id="prefix__b" fill="#fff">
            <use xlink:href="#prefix__a"/>
        </mask>
        <g fill="#FFF" mask="url(#prefix__b)">
            <path d="M4.04 13.421c.95 0 1.759.603 2.065 1.447h4.448c1.753 0 3.217 1.238 3.566 2.895h2.947c1.948 0 3.539 1.528 3.64 3.451l.005.194c0 .414-.336.75-.75.75H6.105c-.29.797-1.027 1.38-1.909 1.442l-.157.005H1.145c-.414 0-.75-.336-.75-.75 0-.38.282-.693.648-.743l.102-.007h2.894c.353 0 .645-.262.691-.603l.007-.094v-5.79c0-.352-.263-.644-.603-.69l-.095-.007H1.145c-.414 0-.75-.336-.75-.75 0-.38.282-.693.648-.743l.102-.007h2.894zm6.513 2.947H6.237v4.289h12.837l-.046-.117c-.314-.708-1-1.214-1.809-1.271l-.153-.006h-6.513c-.415 0-.75-.336-.75-.75 0-.38.282-.693.648-.743l.102-.007h2.01c-.305-.815-1.09-1.395-2.01-1.395zM18.638.395c.518 0 1.016.183 1.41.512l.143.131 2.771 2.771c.366.366.59.848.635 1.36l.008.193v13.151c0 .414-.336.75-.75.75-.38 0-.693-.282-.743-.648l-.007-.102V5.363c0-.149-.047-.291-.132-.41L21.9 4.87l-2.77-2.771c-.105-.105-.24-.173-.384-.196l-.11-.008H8.383c-.353 0-.645.262-.691.603l-.007.094V12c0 .414-.336.75-.75.75-.38 0-.693-.282-.743-.648L6.184 12V2.592c0-1.16.9-2.111 2.04-2.192l.158-.005h10.256zm.017 4.945c.267.266.29.683.073.976l-.073.084-6.25 6.25c-.293.293-.767.293-1.06 0-.267-.266-.29-.683-.073-.976l.073-.084 6.25-6.25c.293-.293.767-.293 1.06 0zm-1.155 4.9c.69 0 1.25.56 1.25 1.25s-.56 1.25-1.25 1.25-1.25-.56-1.25-1.25.56-1.25 1.25-1.25zm-5-4.99c.69 0 1.25.56 1.25 1.25s-.56 1.25-1.25 1.25-1.25-.56-1.25-1.25.56-1.25 1.25-1.25z"/>
        </g>
    </g>
</svg>
