<svg xmlns="http://www.w3.org/2000/svg" xmlns:xlink="http://www.w3.org/1999/xlink" width="24" height="24" viewBox="0 0 24 24">
    <defs>
        <path id="prefix__a" d="M0 0H24V24H0z"/>
    </defs>
    <g fill="none" fill-rule="evenodd">
        <mask id="prefix__b" fill="#fff">
            <use xlink:href="#prefix__a"/>
        </mask>
        <g fill="#FFF" mask="url(#prefix__b)">
            <path d="M23.25 14.5c.38 0 .693.282.743.648l.007.102v6.5c0 1.19-.926 2.166-2.096 2.245L21.75 24h-6.5c-.414 0-.75-.336-.75-.75 0-.38.282-.693.648-.743l.102-.007h6.5c.38 0 .693-.283.743-.648l.007-.102v-6.5c0-.414.336-.75.75-.75zm-22.5 0c.38 0 .693.282.743.648l.007.102v6.5c0 .38.283.693.648.743l.102.007h6.5c.414 0 .75.336.75.75 0 .38-.282.693-.648.743L8.75 24h-6.5c-1.19 0-2.166-.926-2.245-2.096L0 21.75v-6.5c0-.414.336-.75.75-.75zm15-1c1.242 0 2.25 1.008 2.25 2.25S16.992 18 15.75 18s-2.25-1.008-2.25-2.25 1.008-2.25 2.25-2.25zm2.03-7.28c.267.266.29.683.073.976l-.073.084-10.5 10.5c-.293.293-.767.293-1.06 0-.267-.266-.29-.683-.073-.976l.073-.084 10.5-10.5c.293-.293.767-.293 1.06 0zM15.75 15c-.414 0-.75.336-.75.75s.336.75.75.75.75-.336.75-.75-.336-.75-.75-.75zm-7.5-9c1.242 0 2.25 1.008 2.25 2.25S9.492 10.5 8.25 10.5 6 9.492 6 8.25 7.008 6 8.25 6zm.5-6c.414 0 .75.336.75.75 0 .38-.282.693-.648.743L8.75 1.5h-6.5c-.38 0-.693.283-.743.648L1.5 2.25v6.5c0 .414-.336.75-.75.75-.38 0-.693-.282-.743-.648L0 8.75v-6.5C0 1.06.926.084 2.096.005L2.25 0h6.5zm13 0c1.19 0 2.166.926 2.245 2.096L24 2.25v6.5c0 .414-.336.75-.75.75-.38 0-.693-.282-.743-.648L22.5 8.75v-6.5c0-.38-.283-.693-.648-.743L21.75 1.5h-6.5c-.414 0-.75-.336-.75-.75 0-.38.282-.693.648-.743L15.25 0h6.5zM8.25 7.5c-.414 0-.75.336-.75.75s.336.75.75.75.75-.336.75-.75-.336-.75-.75-.75z"/>
        </g>
    </g>
</svg>
