<svg xmlns="http://www.w3.org/2000/svg" xmlns:xlink="http://www.w3.org/1999/xlink" width="165" height="28" viewBox="0 0 165 28">
    <defs>
        <path id="prefix__a" d="M42.068 5.61c1.897 0 3.503.694 4.82 2.084 1.315 1.39 1.973 3.43 1.973 6.12 0 2.838-.643 5.002-1.929 6.49-1.286 1.488-2.942 2.232-4.968 2.232-1.292 0-2.364-.32-3.218-.96-.467-.356-.924-.873-1.37-1.553V28H33.2V5.964h4.041v2.38c.457-.7.943-1.251 1.46-1.655.943-.72 2.066-1.08 3.366-1.08zm-18.276-.075c1.404 0 2.67.252 3.795.756 1.125.503 2.055 1.297 2.788 2.383.66.958 1.089 2.068 1.285 3.332.114.74.16 1.806.139 3.197h-11.75c.065 1.617.627 2.75 1.687 3.4.644.405 1.42.607 2.325.607.961 0 1.742-.247 2.343-.74.327-.265.617-.635.868-1.108h4.307c-.114.956-.635 1.927-1.564 2.912-1.445 1.567-3.468 2.35-6.07 2.35-2.147 0-4.041-.66-5.683-1.982-1.64-1.322-2.461-3.472-2.461-6.451 0-2.791.74-4.932 2.222-6.421 1.482-1.49 3.405-2.235 5.77-2.235zm33.058-.029c2.017 0 3.661.402 4.932 1.205 1.27.803 2 2.19 2.188 4.16H59.75c-.06-.54-.212-.97-.46-1.285-.465-.572-1.257-.858-2.375-.858-.92 0-1.575.143-1.966.43-.391.285-.586.62-.586 1.005 0 .482.207.833.623 1.05.415.226 1.884.615 4.404 1.167 1.68.394 2.94.99 3.78 1.789.828.808 1.243 1.818 1.243 3.03 0 1.597-.596 2.9-1.788 3.91-1.191 1.01-3.033 1.516-5.524 1.516-2.541 0-4.417-.535-5.628-1.604-1.212-1.07-1.817-2.432-1.817-4.088h4.277c.09.75.283 1.281.58 1.597.526.561 1.497.842 2.915.842.833 0 1.495-.123 1.986-.37.49-.245.736-.615.736-1.108 0-.473-.198-.833-.593-1.08-.396-.245-1.867-.67-4.413-1.27-1.834-.454-3.125-1.02-3.875-1.7-.75-.67-1.125-1.636-1.125-2.898 0-1.488.586-2.767 1.758-3.836 1.172-1.07 2.82-1.604 4.947-1.604zm67.912.126c1.77 0 3.343.349 4.718 1.047 1.374.699 2.061 2.016 2.061 3.953v7.749c.003.944.013 3.092.03 3.71h-4.091s.03-1.52 0-1.885c-.585.63-1.258 1.165-2.021 1.608-.911.521-1.941.782-3.09.782-1.466 0-2.677-.416-3.632-1.247-.956-.83-1.434-2.008-1.434-3.532 0-1.977.769-3.408 2.306-4.293.843-.482 2.084-.826 3.72-1.033l1.443-.177c.784-.098 1.344-.221 1.682-.369.605-.255.908-.654.908-1.194 0-.66-.232-1.114-.697-1.365-.464-.251-1.145-.376-2.043-.376-1.009 0-1.722.245-2.141.737-.3.364-.5.856-.6 1.475h-4.06c.088-1.406.484-2.561 1.186-3.467 1.117-1.415 3.036-2.123 5.755-2.123zm33.43 0c1.77 0 3.342.349 4.717 1.047 1.374.699 2.061 2.016 2.061 3.953l.001 7.749c.002.944.012 3.092.029 3.71h-4.091s.03-1.52 0-1.885c-.585.63-1.258 1.165-2.02 1.608-.912.521-1.942.782-3.091.782-1.466 0-2.677-.416-3.632-1.247-.956-.83-1.434-2.008-1.434-3.532 0-1.977.77-3.408 2.307-4.293.842-.482 2.083-.826 3.72-1.033l1.443-.177c.783-.098 1.343-.221 1.68-.369.606-.255.909-.654.909-1.194 0-.66-.232-1.114-.697-1.365-.464-.251-1.145-.376-2.043-.376-1.009 0-1.722.245-2.141.737-.3.364-.5.856-.6 1.475h-4.06c.088-1.406.484-2.561 1.186-3.467 1.117-1.415 3.036-2.123 5.756-2.123zM148.815.036v22.042h-4.1v-2.232c-.602.956-1.288 1.65-2.058 2.084-.77.434-1.726.65-2.87.65-1.885 0-3.472-.76-4.76-2.283-1.287-1.523-1.931-3.477-1.931-5.862 0-2.75.634-4.913 1.902-6.49 1.268-1.576 2.963-2.365 5.085-2.365.976 0 1.844.214 2.605.643.759.429 1.376 1.023 1.85 1.781V.036h4.277zm-72.09 0v8.028c.537-.75 1.128-1.32 1.773-1.716.765-.492 1.738-.739 2.92-.739 2.136 0 3.806.764 5.013 2.292 1.207 1.528 1.81 3.498 1.81 5.913 0 2.504-.595 4.578-1.785 6.224s-2.852 2.469-4.984 2.469c-1.34 0-2.415-.266-3.229-.798-.485-.316-1.012-.868-1.576-1.656v2.025h-4.16V.036h4.219zm17.478 5.928v9.713c0 .916.107 1.606.323 2.07.383.818 1.134 1.227 2.254 1.227 1.433 0 2.415-.582 2.945-1.745.275-.63.413-1.463.413-2.498V5.964h4.277v16.114h-4.1V19.8c-.04.05-.138.198-.295.444-.157.246-.344.463-.56.65-.66.591-1.297.996-1.912 1.212-.615.217-1.336.326-2.162.326-2.382 0-3.986-.858-4.812-2.573-.463-.946-.694-2.34-.694-4.183V5.964h4.323zM4.218.08v7.26c.78-.77 1.171-1.02 1.952-1.33.82-.326 1.806-.475 2.69-.475.993 0 1.895.173 2.705.518.81.345 1.476.873 1.997 1.583.442.603.712 1.221.81 1.857.099.637.148 1.675.148 3.115v9.47h-4.307v-9.813c0-.868-.147-1.568-.44-2.101-.383-.75-1.108-1.125-2.175-1.125-1.107 0-1.947.372-2.52 1.118-.573.744-.86 1.808-.86 3.189v8.732H0V.08h4.218zm66.147 5.884v16.114h-4.277V5.964h4.277zm45.5-.384c.079 0 .145.002.2.007.054.005.174.013.362.022v4.317c-.267-.03-.503-.049-.71-.059-.208-.01-.376-.015-.504-.015-1.697 0-2.836.552-3.419 1.656-.326.62-.488 1.577-.488 2.868v7.702h-4.248V5.964h4.026v2.81c.65-1.075 1.218-1.81 1.702-2.203.79-.66 1.815-.991 3.079-.991zm11.481 8.696c-.269.167-.541.302-.815.405-.276.104-.652.2-1.131.288l-.958.177c-.898.157-1.543.35-1.935.576-.663.383-.994.978-.994 1.785 0 .717.202 1.236.607 1.556.405.32.898.48 1.477.48.92 0 1.767-.266 2.542-.797.775-.532 1.178-1.5 1.207-2.906v-1.564zm33.43 0c-.27.167-.542.302-.816.405-.275.104-.652.2-1.13.288l-.96.177c-.897.157-1.542.35-1.934.576-.663.383-.994.978-.994 1.785 0 .717.202 1.236.607 1.556.405.32.898.48 1.477.48.92 0 1.767-.266 2.543-.797.774-.532 1.177-1.5 1.206-2.906v-1.564zM80.233 9.291c-1.543 0-2.602.694-3.179 2.084-.298.74-.448 1.695-.448 2.868 0 1.38.309 2.523.926 3.43.616.906 1.556 1.36 2.82 1.36 1.095 0 1.945-.439 2.552-1.316s.91-2.03.91-3.46c0-1.142-.149-2.089-.447-2.838C82.8 10 81.756 9.291 80.234 9.291zm60.796-.03c-1.234 0-2.139.466-2.716 1.397-.578.931-.866 2.087-.866 3.467 0 1.488.293 2.678.88 3.57.587.892 1.478 1.338 2.672 1.338 1.194 0 2.102-.444 2.723-1.331.622-.887.933-2.035.933-3.444 0-1.971-.498-3.38-1.495-4.228-.612-.513-1.322-.769-2.131-.769zm-100.169.03c-1.545 0-2.607.724-3.185 2.172-.3.77-.449 1.745-.449 2.928 0 1.872.503 3.188 1.51 3.947.597.443 1.305.665 2.123.665 1.187 0 2.092-.453 2.715-1.36.623-.907.935-2.114.935-3.622 0-1.242-.287-2.34-.86-3.297-.574-.955-1.503-1.434-2.789-1.434zm-17.067-.282c-1.083 0-1.922.307-2.518.921-.596.614-.97 1.445-1.124 2.494h7.268c-.077-1.118-.452-1.967-1.124-2.546-.673-.58-1.507-.869-2.502-.869zM68.159 0c1.283 0 2.323 1.039 2.323 2.32s-1.04 2.32-2.323 2.32-2.323-1.039-2.323-2.32S66.876 0 68.159 0z"/>
    </defs>
    <g fill="none" fill-rule="evenodd">
        <use fill="#FFF" xlink:href="#prefix__a"/>
    </g>
</svg>
