<svg xmlns="http://www.w3.org/2000/svg" width="56" height="28" viewBox="0 0 56 28">
    <path fill="#FFF" fill-rule="evenodd" d="M31.728 18c1.03 0 1.944.196 2.744.585.8.39 1.2 1.127 1.2 2.21v4.12c0 .286.005 1.875.017 2.282h-2.38s.017-.85 0-1.054c-.34.352-.733.651-1.176.899-.53.29-1.13.436-1.798.436-.853 0-1.558-.232-2.114-.696-.556-.465-.834-1.122-.834-1.974 0-1.105.448-1.904 1.342-2.398.49-.27 1.212-.462 2.164-.577l.84-.1c.456-.054.782-.123.978-.205.352-.143.529-.366.529-.668 0-.368-.135-.622-.405-.762s-.667-.21-1.19-.21c-.586 0-1.001.137-1.245.412-.175.203-.29.478-.349.824h-2.363c.052-.786.282-1.431.69-1.937.65-.79 1.767-1.186 3.35-1.186zm19.945 0c1.03 0 1.945.196 2.745.585.8.39 1.2 1.127 1.2 2.21v4.298c.001.51.007 1.751.017 2.104h-2.38s.016-.85 0-1.054c-.341.352-.733.651-1.177.899-.53.29-1.129.436-1.798.436-.852 0-1.557-.232-2.113-.696-.556-.465-.834-1.122-.834-1.974 0-1.105.447-1.904 1.342-2.398.49-.27 1.212-.462 2.164-.577l.84-.1c.456-.054.782-.123.978-.205.352-.143.529-.366.529-.668 0-.368-.135-.622-.406-.762-.27-.14-.666-.21-1.188-.21-.588 0-1.003.137-1.247.412-.174.203-.29.478-.348.824h-2.363c.051-.786.282-1.431.69-1.937.65-.79 1.767-1.186 3.35-1.186zm-5.62-3.126V27.19h-2.386v-1.247c-.35.534-.75.922-1.197 1.164-.448.243-1.005.364-1.671.364-1.097 0-2.02-.426-2.769-1.276-.75-.85-1.124-1.942-1.124-3.275 0-1.536.37-2.745 1.107-3.626.738-.881 1.724-1.322 2.958-1.322.568 0 1.074.12 1.516.36.442.24.801.571 1.077.995v-4.452h2.488zm-43.266 0v4.485c.312-.418.656-.738 1.032-.958.445-.275 1.011-.413 1.699-.413 1.242 0 2.214.427 2.916 1.28.703.854 1.054 1.955 1.054 3.304 0 1.399-.347 2.558-1.04 3.477-.692.92-1.658 1.38-2.9 1.38-.778 0-1.404-.15-1.878-.446-.282-.177-.588-.485-.917-.926v1.132H.333V14.874h2.454zm10.5 3.312v5.427c0 .512.062.897.188 1.156.222.457.66.686 1.31.686.835 0 1.406-.325 1.715-.975.16-.353.24-.818.24-1.396v-4.898h2.489v9.003h-2.386v-1.272c-.023.027-.08.11-.172.248-.091.137-.2.259-.326.363-.384.33-.754.556-1.112.677-.358.122-.778.182-1.258.182-1.386 0-2.32-.479-2.8-1.437-.27-.528-.404-1.307-.404-2.337v-5.427h2.515zm12.933-.215c.046 0 .085.002.116.005.032.002.102.007.212.012V20.4c-.155-.017-.293-.028-.414-.033-.12-.006-.218-.009-.293-.009-.987 0-1.65.309-1.99.926-.189.346-.283.88-.283 1.602v4.303h-2.472v-9.003h2.342v1.57c.38-.6.71-1.01.99-1.231.46-.37 1.057-.554 1.792-.554zm7.01 4.86c-.156.092-.314.168-.474.225-.16.058-.379.112-.658.161l-.557.099c-.523.088-.898.195-1.126.322-.386.214-.579.546-.579.997 0 .401.118.69.354.87.235.178.522.267.86.267.535 0 1.028-.148 1.479-.445.45-.297.684-.838.702-1.624v-.873zm19.947 0c-.157.092-.316.168-.475.225-.16.058-.38.112-.658.161l-.557.099c-.523.088-.898.195-1.126.322-.386.214-.579.546-.579.997 0 .401.118.69.354.87.235.178.522.267.86.267.535 0 1.027-.148 1.479-.445.45-.297.684-.838.702-1.624v-.873zM4.828 20.044c-.897 0-1.513.388-1.849 1.164-.174.413-.26.947-.26 1.602 0 .771.179 1.41.538 1.917.359.506.906.76 1.641.76.637 0 1.132-.245 1.485-.736.353-.49.53-1.134.53-1.932 0-.639-.087-1.168-.26-1.586-.33-.793-.939-1.19-1.825-1.19zm36.694-.017c-.717 0-1.244.26-1.58.78-.336.52-.504 1.167-.504 1.937 0 .832.17 1.497.513 1.995.341.498.86.747 1.554.747.695 0 1.223-.247 1.585-.743.362-.496.542-1.137.542-1.924 0-1.101-.29-1.889-.87-2.362-.355-.287-.769-.43-1.24-.43zM25.47 3.31c1.104 0 2.038.388 2.804 1.164.766.777 1.149 1.917 1.149 3.42 0 1.586-.375 2.794-1.123 3.626-.748.831-1.712 1.247-2.89 1.247-.752 0-1.376-.18-1.873-.537-.272-.198-.537-.487-.797-.867v4.457H20.31V3.508h2.351v1.33c.266-.391.549-.7.85-.925.548-.402 1.201-.603 1.958-.603zm-10.964-.041c.817 0 1.553.14 2.208.422.655.28 1.196.725 1.622 1.331.385.535.634 1.156.748 1.861.066.414.093 1.01.081 1.787h-6.837c.038.903.365 1.537.982 1.9.375.226.826.338 1.353.338.56 0 1.014-.137 1.363-.413.19-.148.359-.355.505-.619h2.506c-.066.534-.37 1.077-.91 1.627-.84.875-2.018 1.313-3.532 1.313-1.249 0-2.351-.369-3.306-1.107-.955-.739-1.433-1.94-1.433-3.605 0-1.56.431-2.755 1.293-3.587.863-.832 1.982-1.248 3.357-1.248zm19.895-.017c1.174 0 2.13.225 2.87.673.739.449 1.163 1.224 1.273 2.325h-2.455c-.035-.303-.124-.542-.268-.719-.27-.319-.731-.479-1.381-.479-.536 0-.917.08-1.145.24-.227.16-.34.347-.34.562 0 .27.12.465.362.586.242.127 1.096.344 2.563.652.977.221 1.71.554 2.198 1 .483.452.724 1.016.724 1.693 0 .892-.347 1.62-1.04 2.185-.693.564-1.765.846-3.214.846-1.48 0-2.57-.299-3.275-.896-.705-.597-1.057-1.358-1.057-2.284h2.489c.051.42.164.716.337.893.306.313.871.47 1.696.47.485 0 .87-.068 1.155-.206.286-.138.429-.344.429-.62 0-.264-.116-.465-.345-.603-.23-.137-1.086-.374-2.568-.71-1.067-.253-1.818-.57-2.255-.95-.436-.374-.654-.914-.654-1.619 0-.831.34-1.545 1.022-2.143.682-.597 1.642-.896 2.879-.896zM2.787.221v4.056c.454-.43.682-.57 1.136-.744.477-.181 1.05-.264 1.565-.264.578 0 1.102.096 1.574.289.472.193.859.488 1.162.884.257.337.414.682.471 1.038.058.356.086.936.086 1.74v5.29H6.275V7.03c0-.485-.085-.877-.256-1.175-.223-.418-.644-.628-1.266-.628-.643 0-1.132.208-1.466.625-.333.416-.5 1.01-.5 1.781v4.879H.333V.22h2.454zm39.808 3.287v9.003h-2.489V3.508h2.489zM24.768 5.366c-.9 0-1.517.405-1.853 1.215-.174.429-.261.974-.261 1.635 0 1.046.292 1.781.878 2.205.348.248.76.372 1.235.372.69 0 1.217-.254 1.58-.76.362-.507.544-1.181.544-2.024 0-.693-.167-1.307-.5-1.841-.334-.534-.875-.802-1.623-.802zm-10.26-.157c-.63 0-1.119.172-1.466.515s-.565.807-.654 1.393h4.23c-.046-.624-.264-1.099-.655-1.422-.391-.324-.876-.486-1.456-.486zM41.31.176c.746 0 1.351.58 1.351 1.296 0 .716-.605 1.296-1.351 1.296s-1.352-.58-1.352-1.296c0-.716.606-1.296 1.352-1.296z"/>
</svg>
