<svg xmlns="http://www.w3.org/2000/svg" xmlns:xlink="http://www.w3.org/1999/xlink" width="24" height="24" viewBox="0 0 24 24">
    <defs>
        <path id="prefix__a" d="M0 0H24V24H0z"/>
    </defs>
    <g fill="none" fill-rule="evenodd">
        <mask id="prefix__b" fill="#fff">
            <use xlink:href="#prefix__a"/>
        </mask>
        <g fill="#FFF" mask="url(#prefix__b)">
            <path d="M14.75 18c.966 0 1.75.784 1.75 1.75v2.5c0 .966-.784 1.75-1.75 1.75h-2.5c-.966 0-1.75-.784-1.75-1.75v-2.5c0-.966.784-1.75 1.75-1.75zm7.5 0c.966 0 1.75.784 1.75 1.75v2.5c0 .966-.784 1.75-1.75 1.75h-2.5c-.966 0-1.75-.784-1.75-1.75v-2.5c0-.966.784-1.75 1.75-1.75zm-7.5 1.5h-2.5c-.138 0-.25.112-.25.25v2.5c0 .138.112.25.25.25h2.5c.138 0 .25-.112.25-.25v-2.5c0-.138-.112-.25-.25-.25zm7.5 0h-2.5c-.138 0-.25.112-.25.25v2.5c0 .138.112.25.25.25h2.5c.138 0 .25-.112.25-.25v-2.5c0-.138-.112-.25-.25-.25zM12.879 0c.53 0 1.041.187 1.444.525l.146.134 2.872 2.872c.375.375.604.868.65 1.392l.009.198V8.25c0 .414-.336.75-.75.75-.38 0-.693-.282-.743-.648L16.5 8.25V5.121c0-.16-.05-.313-.143-.44l-.076-.09-2.872-2.872c-.113-.112-.257-.185-.412-.21l-.118-.009H2.25c-.38 0-.693.283-.743.648L1.5 2.25v16.5c0 .38.283.693.648.743l.102.007h6c.414 0 .75.336.75.75 0 .38-.282.693-.648.743L8.25 21h-6c-1.19 0-2.166-.926-2.245-2.096L0 18.75V2.25C0 1.06.926.084 2.096.005L2.25 0h10.629zM18.5 10.5c.966 0 1.75.784 1.75 1.75v2.5c0 .966-.784 1.75-1.75 1.75H16c-.966 0-1.75-.784-1.75-1.75v-2.5c0-.966.784-1.75 1.75-1.75zm0 1.5H16c-.138 0-.25.112-.25.25v2.5c0 .138.112.25.25.25h2.5c.138 0 .25-.112.25-.25v-2.5c0-.138-.112-.25-.25-.25z"/>
        </g>
    </g>
</svg>
