<svg xmlns="http://www.w3.org/2000/svg" xmlns:xlink="http://www.w3.org/1999/xlink" width="18" height="18" viewBox="0 0 18 18">
    <defs>
        <path id="prefix__a" d="M0 0H18V18H0z"/>
    </defs>
    <g fill="none" fill-rule="evenodd">
        <mask id="prefix__b" fill="#fff">
            <use xlink:href="#prefix__a"/>
        </mask>
        <path fill="#FFF" d="M10.82.75c.9.046 1.597.81 1.557 1.688v3.374c0 .311-.252.563-.563.563-.31 0-.562-.252-.562-.563v-3.4c.013-.283-.206-.524-.46-.537H1.613c-.283.013-.5.254-.487.563v13.525c-.014.283.205.523.46.537h9.176c.283-.013.502-.254.489-.563v-3.374c0-.311.251-.563.562-.563.31 0 .563.252.563.563v3.49c-.034.84-.705 1.529-1.586 1.572H1.558c-.901-.046-1.596-.811-1.556-1.688V2.463C-.039 1.561.657.796 1.586.75zm3.409 5.23c.22-.22.576-.22.795 0l2.813 2.813c.02.02.04.042.056.065l.009.013.008.012c.013.02.025.041.036.063l.016.036.016.045.011.046c.008.037.013.077.013.117l-.004-.066.003.04v.053l-.003.04c-.002.018-.005.035-.009.052l-.011.045-.016.045-.016.036c-.01.022-.023.043-.036.063-.02.032-.045.062-.073.09l.056-.065-.056.065-2.813 2.813c-.22.22-.575.22-.795 0-.22-.22-.22-.576 0-.796l1.851-1.852H5.627c-.28 0-.512-.204-.555-.471l-.008-.091c0-.311.252-.563.563-.563H16.08l-1.852-1.852c-.195-.196-.217-.499-.065-.718z" mask="url(#prefix__b)"/>
    </g>
</svg>
