<svg xmlns="http://www.w3.org/2000/svg" xmlns:xlink="http://www.w3.org/1999/xlink" width="24" height="24" viewBox="0 0 24 24">
    <defs>
        <path id="prefix__a" d="M0 0H24V24H0z"/>
    </defs>
    <g fill="none" fill-rule="evenodd">
        <mask id="prefix__b" fill="#fff">
            <use xlink:href="#prefix__a"/>
        </mask>
        <g fill="#6B6F7C" mask="url(#prefix__b)">
            <path d="M21.753.003c1.242 0 2.25 1.008 2.25 2.25v19.5c0 1.242-1.008 2.25-2.25 2.25h-19.5c-1.242 0-2.25-1.008-2.25-2.25v-19.5c0-1.242 1.008-2.25 2.25-2.25zm0 1.5h-19.5c-.414 0-.75.336-.75.75v19.5c0 .414.336.75.75.75h19.5c.414 0 .75-.336.75-.75v-19.5c0-.414-.336-.75-.75-.75zm-12 12.75c.828 0 1.5.672 1.5 1.5v2.25c0 .828-.672 1.5-1.5 1.5h-3.75c-.828 0-1.5-.672-1.5-1.5v-2.25c0-.828.672-1.5 1.5-1.5zm8.25-3c.828 0 1.5.672 1.5 1.5v5.25c0 .828-.672 1.5-1.5 1.5h-3.75c-.828 0-1.5-.672-1.5-1.5v-5.25c0-.828.672-1.5 1.5-1.5zm-8.25 4.5h-3.75v2.25h3.75v-2.25zm8.25-3h-3.75v5.25h3.75v-5.25zm-8.25-8.25c.828 0 1.5.672 1.5 1.5v5.25c0 .828-.672 1.5-1.5 1.5h-3.75c-.828 0-1.5-.672-1.5-1.5v-5.25c0-.828.672-1.5 1.5-1.5zm0 1.5h-3.75v5.25h3.75v-5.25zm8.25-1.5c.828 0 1.5.672 1.5 1.5v2.25c0 .828-.672 1.5-1.5 1.5h-3.75c-.828 0-1.5-.672-1.5-1.5v-2.25c0-.828.672-1.5 1.5-1.5zm0 1.5h-3.75v2.25h3.75v-2.25z"/>
        </g>
    </g>
</svg>
