<svg xmlns="http://www.w3.org/2000/svg" xmlns:xlink="http://www.w3.org/1999/xlink" width="24" height="24" viewBox="0 0 24 24">
    <defs>
        <path id="a" d="M0 0h24v24H0z"/>
    </defs>
    <g fill="none" fill-rule="evenodd">
        <mask id="b" fill="#fff">
            <use xlink:href="#a"/>
        </mask>
        <g fill="#9b9b9b" mask="url(#b)">
            <path d="M11.25 6V1.5H5.473a.744.744 0 0 0-.679.425L3.124 6h8.126zm1.5 0h8.125l-1.66-4.055a.75.75 0 0 0-.689-.445H12.75V6zm10.228 1.177c.174.319.272.685.272 1.073v13.5A2.25 2.25 0 0 1 21 24H3a2.25 2.25 0 0 1-2.25-2.25V8.25c0-.388.098-.754.272-1.073l2.393-5.84A2.25 2.25 0 0 1 5.475 0h13.05c.89-.002 1.699.522 2.069 1.357l2.384 5.82zM3 7.5a.75.75 0 0 0-.75.75v13.5c0 .414.336.75.75.75h18a.75.75 0 0 0 .75-.75V8.25A.75.75 0 0 0 21 7.5H3zm11.25 12a.75.75 0 1 1 0-1.5h4.5a.75.75 0 1 1 0 1.5h-4.5z"/>
        </g>
    </g>
</svg>
