<svg xmlns="http://www.w3.org/2000/svg" width="16" height="16" viewBox="0 0 16 16">
    <g fill="none" fill-rule="evenodd">
        <path d="M0 0h16v16H0z"/>
        <path fill="#ADAEB6" d="M9.333.667a2 2 0 0 1 2 2v.666H14c.335 0 .612.247.66.568l.007.099a.667.667 0 0 1-.667.667h-.667v8.666a2 2 0 0 1-2 2H4.667a2 2 0 0 1-2-2V4.667H2a.667.667 0 0 1-.66-.568L1.334 4c0-.368.299-.667.667-.667h2.666v-.666a2 2 0 0 1 2-2h2.667zm2.666 4H4L4 13.333c0 .369.298.667.667.667h6.666a.667.667 0 0 0 .667-.667V4.667zm-5.332 2c.368 0 .666.298.666.666v4a.667.667 0 1 1-1.333 0v-4c0-.368.298-.666.667-.666zm2.666 0c.369 0 .667.298.667.666v4a.667.667 0 1 1-1.333 0v-4c0-.368.298-.666.666-.666zm0-4.667H6.667A.667.667 0 0 0 6 2.667v.666h4v-.666A.667.667 0 0 0 9.333 2z"/>
    </g>
</svg>
