<svg xmlns="http://www.w3.org/2000/svg" xmlns:xlink="http://www.w3.org/1999/xlink" width="16" height="16" viewBox="0 0 16 16">
    <defs>
        <path id="a" d="M0 0h16v16H0z"/>
    </defs>
    <g fill="none" fill-rule="evenodd">
        <mask id="b" fill="#fff">
            <use xlink:href="#a"/>
        </mask>
        <g fill="#F90000" mask="url(#b)">
            <path d="M8 0a8 8 0 1 0 8 8 8.009 8.009 0 0 0-8-8zm.167 3.333a1 1 0 1 1 0 2 1 1 0 0 1 0-2zm1.5 9H7A.667.667 0 1 1 7 11h.5a.167.167 0 0 0 .167-.167v-3a.167.167 0 0 0-.167-.166H7a.667.667 0 0 1 0-1.334h.667C8.403 6.333 9 6.93 9 7.667v3.166c0 .092.075.167.167.167h.5a.667.667 0 1 1 0 1.333z"/>
        </g>
    </g>
</svg>
