<svg xmlns="http://www.w3.org/2000/svg" width="24" height="24" viewBox="0 0 24 24">
    <g fill="none" fill-rule="evenodd">
        <path fill="#484848" d="M19.452 7.5c.14 0 .274.06.369.163.095.104.142.242.129.382l-1.285 14.136c-.094 1.03-.957 1.819-1.992 1.819H7.326c-1.035 0-1.898-.789-1.992-1.819L4.047 8.045c-.013-.14.034-.28.13-.383.095-.104.23-.163.37-.162zm-9.95 3.25c-.414 0-.75.336-.75.75v9c0 .414.336.75.75.75s.75-.336.75-.75v-9c0-.414-.336-.75-.75-.75zm5 0c-.414 0-.75.336-.75.75v9c0 .414.336.75.75.75s.75-.336.75-.75v-9c0-.414-.336-.75-.75-.75zM14.5 0C15.88 0 17 1.12 17 2.5v1.25c0 .138.112.25.25.25H22c.552 0 1 .448 1 1s-.448 1-1 1H2c-.552 0-1-.448-1-1s.448-1 1-1h4.75c.066 0 .13-.026.177-.073.047-.047.073-.11.073-.177V2.5C7 1.12 8.12 0 9.5 0zm0 2h-5c-.276 0-.5.224-.5.5v1.25c0 .138.112.25.25.25h5.5c.138 0 .25-.112.25-.25V2.5c0-.276-.224-.5-.5-.5z"/>
    </g>
</svg>
