<svg xmlns="http://www.w3.org/2000/svg" xmlns:xlink="http://www.w3.org/1999/xlink" width="24" height="24" viewBox="0 0 24 24">
    <defs>
        <path id="a" d="M0 0h24v24H0z"/>
    </defs>
    <g fill="none" fill-rule="evenodd">
        <mask id="b" fill="#fff">
            <use xlink:href="#a"/>
        </mask>
        <g fill="#484848" mask="url(#b)">
            <path d="M19.06 8.895a1.5 1.5 0 0 0 .104-2.008l-.103-.114-5.717-5.716A1.9 1.9 0 0 0 10.78.944l-.123.112-5.718 5.717a1.5 1.5 0 0 0 2.008 2.225l.114-.103L12 3.956l4.94 4.939a1.5 1.5 0 0 0 2.12 0zM12 23.334a1.9 1.9 0 0 0 1.344-.557l5.717-5.716.103-.114a1.5 1.5 0 0 0-2.225-2.008L12 19.878l-4.94-4.939-.113-.103a1.5 1.5 0 0 0-2.008 2.225l5.718 5.717.123.112a1.9 1.9 0 0 0 1.22.444z"/>
        </g>
    </g>
</svg>
